<svg viewBox="0 0 512 512" width="512" height="512" xmlns="http://www.w3.org/2000/svg"><g fill="#4b4b4b"><path d="m411.438 55.875a30.95 30.95 0 0 0 -17.969-5.734c-3.438 0-6.906.578-10.25 1.75l.625-.219-204.922 71.719c-10.797-.734-20.766-3.047-27.516-6.109-3.625-1.609-6.281-3.406-7.672-4.766-.703-.672-1.078-1.203-1.266-1.5l-.125-.266-.016-.016c-1.172-6.969-7.766-11.672-14.766-10.531-6.984 1.188-11.719 7.797-10.563 14.781 1.125 6.672 4.75 12.063 8.984 16.094 6.438 6.063 14.531 10 23.703 12.969 9.156 2.906 19.469 4.672 30.266 5.188l2.5.125 208.609-73.016.656-.234a5.6 5.6 0 0 1 1.75-.281c1.109 0 2.188.328 3.125.984a5.377 5.377 0 0 1 2.25 4.359v309.313c0 10-6.313 18.938-15.781 22.235l-207.125 72.484-.375.172c-1.297.547-3.125.938-5.531.938-4.516.047-10.984-1.531-17.781-4.5-10.188-4.391-21.063-11.766-28.797-18.703-3.875-3.469-6.969-6.844-8.766-9.313-.781-1.063-1.25-1.875-1.5-2.359.016-.641.031-1.375.047-2.328.141-11.547.203-47.391.203-91.907 0-101.688-.281-248.078-.281-248.078v-4.734a5.376 5.376 0 0 1 3.594-5.063l210.844-74.391c6.703-2.359 10.219-9.688 7.844-16.375-2.344-6.688-9.688-10.188-16.375-7.828l-210.811 74.375.031-.016a31.013 31.013 0 0 0 -20.797 29.297v4.766c0 .031.016 9.141.047 24.453.063 45.953.219 147.359.219 223.594 0 25.406 0 48.031-.063 64.844a5023.62 5023.62 0 0 1 -.078 20.5 495.506 495.506 0 0 1 -.063 6.234c-.016 1.547-.031 2.672-.047 2.906v-.016l-.016.813c.094 5.141 1.719 8.578 3.453 11.813 3.156 5.563 7.563 10.563 13 15.734 8.125 7.672 18.531 15.328 29.875 21.359 11.359 5.953 23.516 10.516 36.219 10.609 4.891 0 9.922-.828 14.766-2.75l.016.063 206.734-72.359c19.75-6.906 32.969-25.547 32.969-46.469v-309.313a30.99 30.99 0 0 0 -13.077-25.297z"/><path d="m159.688 106.407a6.432 6.432 0 0 0 8.188 3.938l186.874-65.423a6.425 6.425 0 0 0 3.938-8.188c-1.172-3.328-4.844-5.094-8.188-3.922l-186.875 65.407c-3.344 1.172-5.125 4.844-3.937 8.188z"/></g></svg>
