<svg version="1.1" id="_x32_" xmlns="http://www.w3.org/2000/svg" x="0" y="0" viewBox="0 0 512 512" style="width:256px;height:256px" xml:space="preserve" opacity="1"><style>.st0{fill:#4b4b4b}</style><path class="st0" d="M165.013 288.946h75.034c6.953 0 12.609 5.656 12.609 12.608v26.424c0 7.065 3.659 9.585 7.082 9.585 2.106 0 4.451-.936 6.78-2.702l90.964-69.014c3.416-2.589 5.297-6.087 5.297-9.844 0-3.762-1.881-7.259-5.297-9.849l-90.964-69.014c-2.329-1.766-4.674-2.702-6.78-2.702-3.424 0-7.082 2.519-7.082 9.584v26.425c0 6.952-5.656 12.608-12.609 12.608h-75.034c-8.707 0-15.79 7.085-15.79 15.788v34.313c0 8.706 7.082 15.79 15.79 15.79z" fill="#4b4b4b"/><path class="st0" d="M256 0C114.842 0 .002 114.84.002 256S114.842 512 256 512s255.998-114.84 255.998-256S397.158 0 256 0zm0 66.785c104.334 0 189.216 84.879 189.216 189.215S360.334 445.215 256 445.215 66.783 360.336 66.783 256 151.667 66.785 256 66.785z" fill="#4b4b4b"/></svg>