<svg height="256" viewBox="0 0 512 512" width="256" xmlns="http://www.w3.org/2000/svg"><g fill="#4b4b4b"><path d="m154.52 265.848 90.964 69.014c2.329 1.766 4.674 2.702 6.78 2.702 2.148 0 4.022-.974 5.276-2.741 1.199-1.688 1.807-3.99 1.807-6.844v-26.424c0-6.952 5.656-12.608 12.607-12.608h75.036c8.705 0 15.788-7.085 15.788-15.788v-34.313c0-8.703-7.083-15.788-15.788-15.788h-75.036c-6.951 0-12.607-5.656-12.607-12.608v-26.425c0-7.065-3.659-9.584-7.082-9.584-2.106 0-4.451.936-6.78 2.702l-90.964 69.014c-3.416 2.59-5.297 6.087-5.297 9.849-.001 3.756 1.879 7.253 5.296 9.842z"/><path d="m256 0c-141.158 0-255.998 114.84-255.998 256s114.84 256 255.998 256 255.998-114.84 255.998-256-114.84-256-255.998-256zm0 66.785c104.334 0 189.216 84.879 189.216 189.215s-84.882 189.215-189.216 189.215-189.217-84.879-189.217-189.215 84.884-189.215 189.217-189.215z"/></g></svg>