<svg xmlns="http://www.w3.org/2000/svg" viewBox="0 0 226 116.83"><path d="M219.082,0H6.917A6.925,6.925,0,0,0,0,6.917v103a6.926,6.926,0,0,0,6.917,6.918H219.082A6.927,6.927,0,0,0,226,109.912V6.917A6.926,6.926,0,0,0,219.082,0ZM76.912,79.588a2.308,2.308,0,0,1-4.154,1.389L48.167,48.367V81.578H42.308V37.767a2.308,2.308,0,0,1,4.148-1.4l24.6,32.374V34.93h5.859ZM115.107,41.02H97.251V53.488h13.914v5.789H97.251V75.809h17.856V81.6H91.29V35.231h23.817Zm56.624,38.885a2.308,2.308,0,0,1-4.347.3L153.8,48.513l-13.642,31.7a2.308,2.308,0,0,1-4.347-.3L123.521,35.223h6.154l9.313,32.706,12.69-29.382a2.308,2.308,0,0,1,4.239,0L168.554,67.92l9.31-32.7h6.155Z" style="fill:#1f1f1f"/></svg>