<svg version="1.1" id="_x32_" xmlns="http://www.w3.org/2000/svg" x="0" y="0" viewBox="0 0 512 512" width="512" height="512" style="width:32px;height:32px" xml:space="preserve" opacity="1"><style>.st0{fill:#4b4b4b}</style><path class="st0" d="M410.431 63.966C370.965 24.479 316.251-.015 256 0c-60.237-.015-114.958 24.479-154.416 63.966-39.487 39.458-63.98 94.18-63.966 154.416-.014 57.076 21.986 109.21 57.881 148.053 31.947 34.609 75.062 58.846 123.588 67.118v58.59a19.85 19.85 0 0 0 32.627 15.198l144.725-121.715-.036.022c27.36-22.878 47.239-48.146 59.914-76.195 12.711-28.041 18.087-58.437 18.065-91.071.015-60.236-24.472-114.958-63.951-154.416zm9.72 229.112c-10.006 22.029-25.562 42.266-49.237 62.13l-.029.029-112.091 94.267v-33.373c0-10.304-7.906-18.913-18.167-19.784-45.741-3.898-86.515-24.991-115.953-56.85-29.416-31.887-47.335-74.307-47.349-121.115.014-49.404 19.974-93.945 52.338-126.346 32.391-32.364 76.94-52.322 126.337-52.33 49.404.008 93.945 19.966 126.345 52.33 32.371 32.4 52.316 76.942 52.33 126.346-.014 28.399-4.564 52.644-14.524 74.696z"/><path class="st0" d="M151.771 191.906c-14.62 0-26.476 11.856-26.476 26.476s11.856 26.476 26.476 26.476c14.613 0 26.469-11.856 26.469-26.476s-11.855-26.476-26.469-26.476zM256 191.906c-14.613 0-26.469 11.856-26.469 26.476s11.856 26.476 26.469 26.476c14.62 0 26.476-11.856 26.476-26.476S270.62 191.906 256 191.906zM360.236 191.906c-14.62 0-26.469 11.856-26.469 26.476s11.848 26.476 26.469 26.476c14.62 0 26.476-11.856 26.476-26.476s-11.856-26.476-26.476-26.476z"/></svg>
