<?xml version="1.0" encoding="utf-8"?>
<!-- Generator: Adobe Illustrator 16.0.0, SVG Export Plug-In . SVG Version: 6.00 Build 0)  -->
<!DOCTYPE svg PUBLIC "-//W3C//DTD SVG 1.1//EN" "http://www.w3.org/Graphics/SVG/1.1/DTD/svg11.dtd">
<svg version="1.1" id="Ebene_1" xmlns="http://www.w3.org/2000/svg" xmlns:xlink="http://www.w3.org/1999/xlink" x="0px" y="0px"
	 width="64px" height="64px" viewBox="0 0 64 64" enable-background="new 0 0 64 64" xml:space="preserve">
<g>
	<path d="M10,18h44c1.104,0,2-0.896,2-2s-0.896-2-2-2H10c-1.104,0-2,0.896-2,2S8.896,18,10,18z"/>
	<path d="M10,28h44c1.104,0,2-0.896,2-2s-0.896-2-2-2H10c-1.104,0-2,0.896-2,2S8.896,28,10,28z"/>
	<path d="M56,36c0-1.104-0.896-2-2-2H10c-1.104,0-2,0.896-2,2s0.896,2,2,2h44C55.104,38,56,37.104,56,36z"/>
	<path d="M0,47c0,1.104,0.896,2,2,2h14v10c0,0.781,0.455,1.491,1.164,1.817C17.432,60.94,17.716,61,18,61
		c0.469,0,0.933-0.165,1.302-0.481L32.74,49H62c1.104,0,2-0.896,2-2V5c0-1.104-0.896-2-2-2H2C0.896,3,0,3.896,0,5V47z M4,7h56v38H32
		c-0.478,0-0.939,0.171-1.302,0.481L20,54.651V47c0-1.104-0.896-2-2-2H4V7z"/>
</g>
</svg>
