<!--?xml version="1.0" encoding="utf-8"?-->
<!-- Generator: Adobe Illustrator 18.1.1, SVG Export Plug-In . SVG Version: 6.00 Build 0)  -->

<svg version="1.1" id="_x32_" xmlns="http://www.w3.org/2000/svg" xmlns:xlink="http://www.w3.org/1999/xlink" x="0px" y="0px" viewBox="0 0 512 512" style="width: 32px; height: 32px; opacity: 1;" xml:space="preserve">
<style type="text/css">
	.st0{fill:#4B4B4B;}
</style>
<g>
	<path class="st0" d="M412.174,352.363c-12.536,3.75-24.842,10.263-37.224,22.584l-0.016,0.016
		c-16.117,16.239-22.454,32.372-25.254,49.025c-2.756,16.646-1.394,33.689-1.103,49.997c0.03,2.725,0.046,5.449-0.015,8.151
		l133.575-133.591c-4.24,0.1-8.51,0.038-12.826-0.069C450.531,347.916,430.924,346.768,412.174,352.363z" style="fill: rgb(245, 220, 101);"></path>
	<path class="st0" d="M256.007,0.004C114.611,0.004,0,114.607,0,255.988c0,141.397,114.611,256.008,256.007,256.008
		c21.168,0,41.663-2.74,61.347-7.592c2.525-2.793,4.132-6.244,5.173-11.816c1.056-5.839,1.148-13.622,0.888-22.606
		c-0.428-17.985-2.204-40.776,4.898-64.928c4.73-16.086,13.638-32.617,28.898-47.823c0,0,0-0.008,0.016-0.016
		c19.944-20.066,42.214-28.997,62.708-32.28c20.525-3.329,39.428-1.615,54.444-1.431c9.995,0.199,18.137-0.414,23.418-2.304
		c2.785-0.988,4.791-2.227,6.612-3.888c4.852-19.66,7.592-40.163,7.592-61.323C512,114.607,397.389,0.004,256.007,0.004z
		 M202.069,322.439l-16.775,3.306c-1.132,0.214-1.913-0.069-2.679-0.941l-45.78-53.495l-0.704,0.138l11.831,60.168
		c0.168,0.85-0.291,1.524-1.132,1.691l-15.934,3.131c-0.842,0.168-1.515-0.292-1.684-1.141l-18.275-92.991
		c-0.183-0.857,0.276-1.523,1.118-1.691l16.913-3.329c0.995-0.199,1.913,0.069,2.663,0.949l45.688,53.655l0.704-0.138
		l-11.862-60.313c-0.169-0.85,0.29-1.515,1.148-1.691l15.918-3.13c0.842-0.168,1.516,0.275,1.684,1.132l18.291,92.999
		C203.37,321.606,202.911,322.278,202.069,322.439z M284.675,306.192l-61.438,12.091c-0.857,0.161-1.516-0.291-1.683-1.14
		l-18.306-92.991c-0.153-0.857,0.291-1.531,1.148-1.699l61.438-12.084c0.842-0.161,1.516,0.292,1.684,1.14l2.954,15.077
		c0.184,0.842-0.275,1.515-1.117,1.683l-41.296,8.12c-0.566,0.106-0.795,0.444-0.689,1.01l3.751,19.025
		c0.106,0.559,0.443,0.788,1.01,0.681l34.392-6.766c0.842-0.161,1.516,0.299,1.684,1.133l2.939,14.938
		c0.168,0.849-0.291,1.516-1.133,1.684l-34.392,6.764c-0.551,0.108-0.796,0.444-0.689,1.01l3.918,19.867
		c0.107,0.567,0.459,0.788,1.01,0.673l41.295-8.12c0.842-0.168,1.516,0.299,1.684,1.14l2.969,15.076
		C285.977,305.358,285.518,306.032,284.675,306.192z M387.578,284.488c0.016,0.888-0.566,1.592-1.561,1.776l-14.096,2.77
		c-0.98,0.199-1.668-0.26-2.113-1.049l-28.347-56.333l-0.275,0.061l-5.052,62.899c-0.106,0.896-0.566,1.577-1.545,1.768
		l-14.096,2.778c-0.843,0.161-1.516-0.298-1.975-1.087l-43.086-88.124c-0.306-0.819-0.138-1.439,0.856-1.63l18.168-3.574
		c0.994-0.191,1.668,0.252,1.959,1.079l25.652,57.45l0.291-0.061l4.515-63.374c0.107-0.911,0.566-1.577,1.546-1.776l12.26-2.41
		c0.842-0.161,1.516,0.283,1.975,1.087l28.729,56.831l0.291-0.053l1.408-62.762c-0.046-1.018,0.429-1.561,1.423-1.752l18.03-3.544
		c0.98-0.199,1.378,0.306,1.393,1.186L387.578,284.488z" style="fill: rgb(245, 220, 101);"></path>
</g>
</svg>
