<!--?xml version="1.0" encoding="utf-8"?-->
<!-- Generator: Adobe Illustrator 18.0.0, SVG Export Plug-In . SVG Version: 6.00 Build 0)  -->

<svg version="1.1" id="_x32_" xmlns="http://www.w3.org/2000/svg" xmlns:xlink="http://www.w3.org/1999/xlink" x="0px" y="0px" viewBox="0 0 512 512" style="width: 16px; height: 16px; opacity: 1;" xml:space="preserve">
<style type="text/css">
	.st0{fill:#4B4B4B;}
</style>
<g>
	<path class="st0" d="M477.945,450.168c-4.229-23.245-19.573-43.012-41.104-52.911l-90.4-36.941
		c-14.484-6.654-23.843-21.25-23.843-37.189v-13.315c0-6.157,1.015-12.212,2.789-17.562c0.57-0.768,57.218-77.158,57.218-146.893
		C382.606,61.133,329.361,0,256,0c-73.361,0-126.606,61.133-126.606,145.356c0,69.736,56.65,146.125,56.989,146.459
		c2.003,5.815,3.02,11.871,3.02,17.996v13.315c0,15.94-9.36,30.536-23.781,37.158l-90.523,37.003
		c-21.481,9.868-36.822,29.643-41.064,53.043L29.253,512h453.495L477.945,450.168z" style="fill: rgb(0, 0, 0);"></path>
</g>
</svg>
